<svg height="451pt" viewBox="0 0 451 451.87404" width="451pt" xmlns="http://www.w3.org/2000/svg"><path d="m226.359375 427.863281c-111.613281 0-202.421875-90.804687-202.421875-202.417969 0-51.011718 19.039062-99.742187 53.609375-137.210937 34.367187-37.25 81-60.136719 131.300781-64.449219 1.652344-.128906 3.101563 1.082032 3.246094 2.734375.144531 1.648438-1.082031 3.101563-2.734375 3.246094-48.804687 4.183594-94.054687 26.390625-127.40625 62.535156-33.539063 36.355469-52.015625 83.640625-52.015625 133.140625 0 108.304688 88.117188 196.417969 196.421875 196.417969s196.417969-88.113281 196.417969-196.417969c0-103.140625-80.539063-189.222656-183.351563-195.976562-1.65625-.105469-2.90625-1.535156-2.796875-3.1875.109375-1.65625 1.558594-2.921875 3.191406-2.796875 105.957032 6.960937 188.957032 95.671875 188.957032 201.960937 0 111.617188-90.804688 202.421875-202.417969 202.421875zm0 0" fill="#3a312a"/><path d="m106.910156 308.585938h76.15625v-36.726563c0-22.386719-18.144531-40.53125-40.53125-40.53125h-26.777344v-17.402344c-7.40625 5.132813-15.070312 8.164063-22.503906 8.164063-7.136718 0-14.664062-3.058594-22.039062-8.253906h-.453125v17.492187h-26.792969c-22.386719 0-40.53125 18.144531-40.53125 40.53125v36.726563zm0 0" fill="#fce8cb"/><path d="m183.066406 311.585938h-76.15625c-1.65625 0-3-1.34375-3-3s1.34375-3 3-3h73.15625v-33.726563c0-20.695313-16.835937-37.53125-37.53125-37.53125h-26.777344c-1.65625 0-3-1.34375-3-3v-11.964844c-6.6875 3.804688-13.230468 5.726563-19.503906 5.726563-6.1875 0-12.726562-2.027344-19.492187-6.03125v12.269531c0 1.65625-1.34375 3-3 3h-26.792969c-20.695312 0-37.53125 16.835937-37.53125 37.53125v33.726563h69.867188c1.660156 0 3 1.34375 3 3s-1.339844 3-3 3h-72.867188c-1.660156 0-3-1.34375-3-3v-36.726563c0-24.003906 19.527344-43.53125 43.53125-43.53125h23.789062v-14.492187c0-1.660157 1.34375-3 3-3h.457032c.617187 0 1.21875.191406 1.726562.546874 7.257813 5.113282 14.089844 7.707032 20.308594 7.707032 6.5 0 13.496094-2.566406 20.800781-7.628906.917969-.636719 2.109375-.707032 3.097657-.191407.988281.515625 1.609374 1.539063 1.609374 2.65625v14.402344h23.777344c24 0 43.53125 19.53125 43.53125 43.53125v36.730469c0 1.652344-1.34375 2.996094-3 2.996094zm0 0" fill="#3a312a"/><path d="m106.910156 308.589844h76.15625v-36.742188c0-22.386718-18.144531-40.535156-40.53125-40.535156h-6.402344l.164063.125-27.851563 36.9375-14.375-10.828125-14.375 10.828125-27.851562-36.9375.167969-.125h-8.042969c-22.386719 0-40.53125 18.148438-40.53125 40.535156v36.742188zm0 0" fill="#8ac6dd"/><path d="m183.066406 311.589844h-76.15625c-1.65625 0-3-1.34375-3-3s1.34375-3 3-3h73.15625v-33.742188c0-20.699218-16.835937-37.535156-37.53125-37.535156h-4.648437l-27.046875 35.871094c-1 1.320312-2.878906 1.585937-4.199219.589844l-12.570313-9.46875-12.566406 9.46875c-1.320312.996093-3.203125.730468-4.199218-.589844l-27.046876-35.867188h-6.289062c-20.695312 0-37.53125 16.835938-37.53125 37.53125v33.746094h69.871094c1.65625 0 3 1.34375 3 3 0 1.652344-1.34375 3-3 3h-72.871094c-1.660156 0-3-1.347656-3-3v-36.746094c0-24.003906 19.527344-43.53125 43.53125-43.53125h8.039062c1.296876 0 2.445313.832032 2.851563 2.0625.011719.046875.027344.085938.039063.132813l25.386718 33.667969 11.976563-9.027344c1.070312-.800782 2.542969-.800782 3.609375 0l11.980468 9.027344 25.386719-33.667969c.011719-.042969.023438-.085938.039063-.132813.402344-1.230468 1.554687-2.0625 2.851562-2.0625h6.40625c24 0 43.53125 19.527344 43.53125 43.53125v36.746094c0 1.652344-1.34375 2.996094-3 2.996094zm0 0" fill="#3a312a"/><path d="m34.273438 118.949219c-6.574219-5.859375-16.65625-5.285157-22.519532 1.289062-5.863281 6.574219-5.285156 16.652344 1.289063 22.515625 6.570312 5.863282 16.652343 5.289063 22.515625-1.285156 5.863281-6.574219 5.285156-16.65625-1.285156-22.519531zm0 0" fill="#fce8cb" fill-rule="evenodd"/><path d="m23.65625 149.804688c-10.445312 0-18.945312-8.5-18.945312-18.949219s8.5-18.949219 18.945312-18.949219c10.449219 0 18.949219 8.5 18.949219 18.949219s-8.5 18.949219-18.949219 18.949219zm0-31.898438c-7.140625 0-12.945312 5.808594-12.945312 12.949219 0 7.136719 5.804687 12.949219 12.945312 12.949219s12.949219-5.808594 12.949219-12.949219c0-7.136719-5.808594-12.949219-12.949219-12.949219zm0 0" fill="#3a312a"/><path d="m178.800781 130.855469c0 8.808593-7.140625 15.949219-15.949219 15.949219-8.808593 0-15.949218-7.140626-15.949218-15.949219 0-8.808594 7.140625-15.949219 15.949218-15.949219 8.808594 0 15.949219 7.140625 15.949219 15.949219zm0 0" fill="#fce8cb" fill-rule="evenodd"/><path d="m162.851562 149.804688c-10.445312 0-18.945312-8.5-18.945312-18.949219s8.5-18.949219 18.945312-18.949219c10.449219 0 18.949219 8.5 18.949219 18.949219s-8.5 18.949219-18.949219 18.949219zm0-31.898438c-7.136718 0-12.945312 5.808594-12.945312 12.949219 0 7.136719 5.808594 12.949219 12.945312 12.949219 7.140626 0 12.949219-5.808594 12.949219-12.949219 0-7.136719-5.808593-12.949219-12.949219-12.949219zm0 0" fill="#3a312a"/><path d="m163.949219 123.117188c0 39.042968-37.601563 98.976562-70.695313 98.976562-31.589844 0-70.699218-59.933594-70.699218-98.976562 0-39.046876 31.652343-70.699219 70.699218-70.699219s70.695313 31.652343 70.695313 70.699219zm0 0" fill="#fce8cb"/><path d="m93.253906 225.09375c-15.691406 0-33.792968-13.175781-49.664062-36.140625-14.824219-21.457031-24.035156-46.679687-24.035156-65.835937 0-40.636719 33.058593-73.695313 73.699218-73.695313 40.636719 0 73.695313 33.058594 73.695313 73.695313 0 19.367187-8.988281 44.585937-23.457031 65.820312-15.660157 22.972656-33.972657 36.15625-50.238282 36.15625zm0-169.675781c-37.328125 0-67.699218 30.371093-67.699218 67.699219 0 36.46875 37.820312 95.976562 67.699218 95.976562 14.042969 0 30.96875-12.539062 45.277344-33.539062 13.828125-20.289063 22.417969-44.210938 22.417969-62.4375.003906-37.332032-30.367188-67.699219-67.695313-67.699219zm0 0" fill="#3a312a"/><path d="m75.195312 122.316406c0 3.8125-3.089843 6.902344-6.898437 6.902344-3.8125 0-6.902344-3.089844-6.902344-6.902344 0-3.808594 3.089844-6.898437 6.902344-6.898437 3.808594 0 6.898437 3.089843 6.898437 6.898437zm0 0" fill="#3a312a"/><path d="m125.113281 122.316406c0 3.8125-3.089843 6.902344-6.898437 6.902344s-6.898438-3.089844-6.898438-6.902344c0-3.808594 3.089844-6.898437 6.898438-6.898437s6.898437 3.089843 6.898437 6.898437zm0 0" fill="#3a312a"/><path d="m66.390625 142.832031c0 4.90625-5.324219 8.886719-11.890625 8.886719-6.5625 0-11.886719-3.980469-11.886719-8.886719s5.324219-8.886719 11.886719-8.886719c6.566406 0 11.890625 3.980469 11.890625 8.886719zm0 0" fill="#f5978a"/><path d="m143.894531 142.832031c0 4.90625-5.324219 8.886719-11.886719 8.886719-6.566406 0-11.886718-3.980469-11.886718-8.886719s5.320312-8.886719 11.886718-8.886719c6.5625 0 11.886719 3.980469 11.886719 8.886719zm0 0" fill="#f5978a"/><path d="m94.070312 36.8125c-40.410156 0-73.171874 31.324219-73.171874 69.960938 0 4.089843.738281 7.136718 2.113281 10.941406.648437 1.796875 11.125-3.933594 12.015625-4.566406 4.464844-3.140626 8.109375-7.394532 10.832031-12.105469 1.128906-1.957031 2.066406-3.945313 2.824219-5.9375 2.410156-6.359375 8.964844-24.042969 15.621094-22.652344 8.921874 1.859375 19.035156 2.910156 29.765624 2.910156 10.730469 0 20.84375-1.050781 29.765626-2.910156 6.652343-1.390625 13.207031 16.292969 15.617187 22.652344.757813 1.992187 1.699219 3.984375 2.824219 5.941406 4.5 7.785156 12.105468 15.199219 21.355468 16.546875.023438-.449219.585938-.601562 1.007813-.75 3.027344-1.101562 2.601563-7.644531 2.601563-10.070312.003906-38.636719-32.757813-69.960938-73.171876-69.960938zm0 0" fill="#87796f"/><path d="m23.578125 121.027344c-.417969 0-.800781-.050782-1.132813-.152344-1.0625-.335938-1.886718-1.117188-2.257812-2.140625-1.375-3.808594-2.289062-7.300781-2.289062-11.957031 0-40.230469 34.171874-72.964844 76.171874-72.964844 42.003907 0 76.175782 32.730469 76.175782 72.960938l.007812.773437c.050782 3.578125.148438 10.183594-4.367187 12.03125-.109375.121094-.222657.234375-.351563.339844-.648437.535156-1.5.765625-2.335937.648437-8.960938-1.308594-17.753907-8.042968-23.515625-18.015625-1.1875-2.0625-2.207032-4.207031-3.03125-6.375l-.152344-.40625c-7.652344-20.1875-11.378906-20.507812-12.050781-20.375-9.472657 1.972657-19.695313 2.972657-30.378907 2.972657-10.683593 0-20.90625-1-30.378906-2.972657-.667968-.132812-4.394531.183594-12.046875 20.375l-.15625.40625c-.824219 2.167969-1.839843 4.3125-3.027343 6.371094-3.082032 5.328125-7.128907 9.839844-11.707032 13.0625-.085937.058594-8.75 5.417969-13.175781 5.417969zm70.492187-81.214844c-38.691406 0-70.171874 30.039062-70.171874 66.964844 0 3.03125.449218 5.367187 1.246093 7.90625 2.558594-.9375 7.105469-3.289063 8.179688-4 3.847656-2.707032 7.292969-6.566406 9.941406-11.136719 1.023437-1.777344 1.902344-3.628906 2.613281-5.503906l.152344-.398438c5.117188-13.507812 10.945312-25.796875 18.886719-24.125 9.070312 1.890625 18.878906 2.847657 29.152343 2.847657 10.277344 0 20.085938-.957032 29.15625-2.847657 7.9375-1.652343 13.765626 10.617188 18.882813 24.125l.152344.398438c.710937 1.875 1.589843 3.726562 2.621093 5.507812 4.554688 7.882813 11.15625 13.332031 17.871094 14.835938.234375-.121094.492188-.230469.773438-.332031.335937-.34375.796875-1.796876.726562-6.417969l-.007812-.863281c0-36.921876-31.480469-66.960938-70.175782-66.960938zm0 0" fill="#3a312a"/><path d="m51.863281 231.425781 14.433594-10.878906 27.84375 36.949219-14.433594 10.878906zm0 0" fill="#87796f"/><path d="m79.699219 271.378906c-.910157 0-1.808594-.414062-2.398438-1.195312l-27.84375-36.949219c-.480469-.632813-.6875-1.433594-.574219-2.21875.109376-.789063.527344-1.5 1.164063-1.980469l14.433594-10.875c.632812-.476562 1.433593-.683594 2.21875-.574218.789062.109374 1.5.527343 1.980469 1.160156l27.84375 36.949218c.996093 1.324219.734374 3.203126-.589844 4.203126l-14.433594 10.875c-.539062.40625-1.171875.605468-1.800781.605468zm-23.644531-39.355468 24.230468 32.152343 9.644532-7.265625-24.234376-32.15625zm0 0" fill="#3a312a"/><path d="m108.460938 268.375-14.4375-10.878906 27.847656-36.949219 14.433594 10.878906zm0 0" fill="#87796f"/><path d="m108.441406 271.378906c-.625 0-1.261718-.199218-1.800781-.605468l-14.4375-10.875c-.632813-.476563-1.050781-1.191407-1.164063-1.976563-.109374-.792969.097657-1.589844.574219-2.222656l27.847657-36.949219c.476562-.636719 1.1875-1.054688 1.976562-1.164062.785156-.109376 1.585938.097656 2.222656.574218l14.433594 10.878906c1.324219.996094 1.585938 2.878907.589844 4.199219l-27.84375 36.949219c-.589844.777344-1.488282 1.191406-2.398438 1.191406zm-10.226562-14.46875 9.640625 7.265625 24.230469-32.152343-9.640626-7.265626zm0 0" fill="#3a312a"/><path d="m37.082031 311.589844c-1.65625 0-3-1.34375-3-3v-29.03125c0-1.65625 1.34375-3 3-3 1.660157 0 3 1.34375 3 3v29.03125c0 1.65625-1.339843 3-3 3zm0 0" fill="#3a312a"/><path d="m151.054688 311.589844c-1.65625 0-3-1.34375-3-3v-29.03125c0-1.65625 1.34375-3 3-3 1.660156 0 3 1.34375 3 3v29.03125c0 1.65625-1.339844 3-3 3zm0 0" fill="#3a312a"/><path d="m33.449219 50.542969c12 15.113281 26.355469 31.222656 43.695312 36.152343 27.925781 7.941407 77.351563-1.964843 77.351563-42.160156 0-25.703125-21.542969-56.765625-61.746094-33.113281-49.835938 29.316406-78.761719-27.039063-78.761719-1.335937 0 8.121093 3.273438 16.222656 7.570313 23.597656zm0 0" fill="#87796f"/><path d="m96.683594 92.210938c-7.371094 0-14.386719-.933594-20.359375-2.628907-17.828125-5.066406-32.269531-20.859375-45.226563-37.171875-.03125-.042968-.070312-.089844-.101562-.136718l-11.894532-16.859376c-.046874-.070312-.09375-.144531-.136718-.21875-5.371094-9.210937-7.980469-17.425781-7.980469-25.109374 0-3.375.394531-7.472657 3.457031-9.207032 3.625-2.058594 7.859375.488282 14.277344 4.335938 12.714844 7.625 34 20.390625 62.507812 3.625 21.597657-12.703125 36.589844-9.394532 45.363282-4.375 14.441406 8.257812 20.90625 26.078125 20.910156 40.074218 0 14.1875-5.933594 26.171876-17.15625 34.648438-12.117188 9.148438-28.625 13.023438-43.660156 13.023438zm-60.832032-43.46875c12.316407 15.503906 25.941407 30.46875 42.113282 35.066406 16.714844 4.753906 42.265625 3.046875 58.761718-9.414063 9.800782-7.402343 14.769532-17.449219 14.769532-29.859375 0-12.261718-5.53125-27.800781-17.886719-34.867187-10.605469-6.0625-24.207031-4.5625-39.339844 4.339843-31.578125 18.574219-55.6875 4.117188-68.640625-3.652343-3.03125-1.816407-6.761718-4.054688-8.179687-4.1875-.164063.382812-.464844 1.429687-.464844 3.914062 0 6.5625 2.324219 13.753907 7.097656 21.976563zm0 0" fill="#3a312a"/><path d="m93.25 183.460938c-10.378906 0-17.859375-4.667969-22.242188-13.871094-.710937-1.496094-.078124-3.285156 1.417969-3.996094 1.496094-.710938 3.289063-.078125 4 1.417969 3.390625 7.125 8.738281 10.449219 16.824219 10.449219 10.207031 0 15.40625-6.679688 16.726562-10.210938.582032-1.550781 2.308594-2.34375 3.863282-1.757812 1.550781.582031 2.335937 2.308593 1.757812 3.863281-2.546875 6.792969-10.621094 14.105469-22.347656 14.105469zm0 0" fill="#3a312a"/><path d="m448.398438 271.859375v36.726563h-179.628907v-36.726563c0-22.386719 18.144531-40.53125 40.53125-40.53125h26.792969v-17.492187h.457031c7.375 5.195312 14.902344 8.253906 22.035157 8.253906 7.4375 0 15.101562-3.03125 22.507812-8.164063v17.402344h26.777344c22.382812 0 40.527344 18.144531 40.527344 40.53125zm0 0" fill="#fce8cb"/><path d="m448.398438 311.585938h-179.628907c-1.65625 0-3-1.34375-3-3v-36.726563c0-24.003906 19.53125-43.53125 43.53125-43.53125h23.792969v-14.492187c0-1.660157 1.339844-3 3-3h.453125c.617187 0 1.222656.191406 1.726563.546874 7.261718 5.113282 14.09375 7.707032 20.3125 7.707032 6.496093 0 13.496093-2.566406 20.796874-7.628906.917969-.636719 2.113282-.707032 3.101563-.191407s1.605469 1.539063 1.605469 2.65625v14.402344h23.777344c24.003906 0 43.53125 19.53125 43.53125 43.53125v36.730469c0 1.652344-1.339844 2.996094-3 2.996094zm-176.628907-6h173.628907v-33.726563c0-20.695313-16.835938-37.53125-37.53125-37.53125h-26.777344c-1.65625 0-3-1.34375-3-3v-11.964844c-6.6875 3.804688-13.230469 5.726563-19.503906 5.726563-6.183594 0-12.722657-2.027344-19.492188-6.03125v12.269531c0 1.65625-1.34375 3-3 3h-26.792969c-20.695312 0-37.53125 16.835937-37.53125 37.53125zm0 0" fill="#3a312a"/><path d="m448.402344 271.847656v36.742188h-179.628906v-36.742188c0-22.386718 18.144531-40.53125 40.53125-40.53125h8.039062l-.164062.121094 27.851562 36.941406 14.371094-10.832031 14.375 10.832031 27.851562-36.941406-.164062-.121094h6.402344c22.386718 0 40.535156 18.144532 40.535156 40.53125zm0 0" fill="#d7e057"/><path d="m448.402344 311.589844h-179.628906c-1.660157 0-3-1.34375-3-3v-36.742188c0-24.003906 19.527343-43.53125 43.53125-43.53125h8.039062c1.300781 0 2.453125.835938 2.851562 2.070313.015626.039062.027344.078125.039063.121093l25.386719 33.667969 11.976562-9.023437c1.070313-.804688 2.542969-.804688 3.613282 0l11.976562 9.023437 25.386719-33.667969c.011719-.039062.023437-.078124.035156-.117187.402344-1.238281 1.554687-2.074219 2.855469-2.074219h6.40625c24.003906 0 43.53125 19.527344 43.53125 43.53125v36.742188c0 1.65625-1.34375 3-3 3zm-176.632813-6h173.628907v-33.742188c0-20.695312-16.835938-37.53125-37.53125-37.53125h-4.652344l-27.042969 35.867188c-1 1.320312-2.878906 1.585937-4.199219.589844l-12.570312-9.46875-12.570313 9.46875c-1.320312.996093-3.199219.730468-4.199219-.589844l-27.042968-35.867188h-6.289063c-20.695312 0-37.53125 16.835938-37.53125 37.53125zm0 0" fill="#3a312a"/><path d="m303.71875 124.785156c-3.355469-8.144531-12.675781-12.027344-20.820312-8.671875-8.144532 3.351563-12.027344 12.675781-8.671876 20.816407 3.351563 8.144531 12.675782 12.027343 20.816407 8.675781 8.144531-3.355469 12.027343-12.675781 8.675781-20.820313zm0 0" fill="#fce8cb" fill-rule="evenodd"/><path d="m288.992188 149.804688c-10.449219 0-18.949219-8.5-18.949219-18.949219s8.5-18.949219 18.949219-18.949219c10.445312 0 18.945312 8.5 18.945312 18.949219s-8.5 18.949219-18.945312 18.949219zm0-31.898438c-7.140626 0-12.949219 5.808594-12.949219 12.949219 0 7.136719 5.808593 12.949219 12.949219 12.949219 7.136718 0 12.945312-5.808594 12.945312-12.949219 0-7.136719-5.808594-12.949219-12.945312-12.949219zm0 0" fill="#3a312a"/><path d="m438.875 118.996094c-6.550781-5.890625-16.632812-5.355469-22.523438 1.191406-5.890624 6.550781-5.355468 16.632812 1.195313 22.523438 6.546875 5.890624 16.632813 5.355468 22.523437-1.195313 5.890626-6.546875 5.355469-16.632813-1.195312-22.519531zm0 0" fill="#fce8cb" fill-rule="evenodd"/><path d="m428.183594 149.804688c-10.445313 0-18.945313-8.5-18.945313-18.949219s8.5-18.949219 18.945313-18.949219c10.449218 0 18.949218 8.5 18.949218 18.949219s-8.5 18.949219-18.949218 18.949219zm0-31.898438c-7.136719 0-12.945313 5.808594-12.945313 12.949219 0 7.136719 5.808594 12.949219 12.945313 12.949219 7.140625 0 12.949218-5.808594 12.949218-12.949219 0-7.136719-5.808593-12.949219-12.949218-12.949219zm0 0" fill="#3a312a"/><path d="m429.285156 123.117188c0 39.042968-37.605468 98.976562-70.699218 98.976562-31.589844 0-70.695313-59.933594-70.695313-98.976562 0-39.046876 31.652344-70.699219 70.695313-70.699219 39.046874 0 70.699218 31.652343 70.699218 70.699219zm0 0" fill="#fce8cb"/><path d="m358.585938 225.09375c-15.6875 0-33.789063-13.175781-49.664063-36.140625-14.824219-21.457031-24.03125-46.679687-24.03125-65.835937 0-40.636719 33.058594-73.695313 73.695313-73.695313 40.636718 0 73.699218 33.058594 73.699218 73.695313 0 19.367187-8.988281 44.585937-23.460937 65.820312-15.660157 22.972656-33.96875 36.15625-50.238281 36.15625zm0-169.675781c-37.328126 0-67.695313 30.371093-67.695313 67.699219 0 36.46875 37.820313 95.976562 67.695313 95.976562 14.042968 0 30.96875-12.539062 45.28125-33.539062 13.828124-20.289063 22.414062-44.210938 22.414062-62.4375.003906-37.332032-30.367188-67.699219-67.695312-67.699219zm0 0" fill="#3a312a"/><path d="m340.527344 122.316406c0 3.8125-3.089844 6.902344-6.898438 6.902344-3.8125 0-6.902344-3.089844-6.902344-6.902344 0-3.808594 3.089844-6.898437 6.902344-6.898437 3.808594 0 6.898438 3.089843 6.898438 6.898437zm0 0" fill="#3a312a"/><path d="m390.449219 122.316406c0 3.8125-3.089844 6.902344-6.898438 6.902344-3.8125 0-6.902343-3.089844-6.902343-6.902344 0-3.808594 3.089843-6.898437 6.902343-6.898437 3.808594 0 6.898438 3.089843 6.898438 6.898437zm0 0" fill="#3a312a"/><path d="m331.722656 142.832031c0 4.90625-5.320312 8.886719-11.886718 8.886719-6.5625 0-11.886719-3.980469-11.886719-8.886719s5.324219-8.886719 11.886719-8.886719c6.566406 0 11.886718 3.980469 11.886718 8.886719zm0 0" fill="#f5978a"/><path d="m409.226562 142.832031c0 4.90625-5.324218 8.886719-11.886718 8.886719-6.566406 0-11.886719-3.980469-11.886719-8.886719s5.320313-8.886719 11.886719-8.886719c6.5625 0 11.886718 3.980469 11.886718 8.886719zm0 0" fill="#f5978a"/><path d="m359.402344 36.8125c-40.410156 0-73.171875 31.324219-73.171875 69.960938 0 4.089843.738281 7.136718 2.113281 10.941406.648438 1.796875 11.125-3.933594 12.015625-4.566406 4.464844-3.140626 8.109375-7.394532 10.832031-12.105469 1.128906-1.957031 2.066406-3.945313 2.824219-5.9375 2.410156-6.359375 8.964844-24.042969 15.621094-22.652344 8.921875 1.859375 19.035156 2.910156 29.765625 2.910156 10.730468 0 20.84375-1.050781 29.765625-2.910156 6.652343-1.390625 13.207031 16.292969 15.617187 22.652344.757813 1.992187 1.699219 3.984375 2.824219 5.941406 4.5 7.785156 12.105469 15.199219 21.355469 16.546875.019531-.449219.585937-.601562 1.007812-.75 3.027344-1.101562 2.601563-7.644531 2.601563-10.070312.003906-38.636719-32.757813-69.960938-73.171875-69.960938zm0 0" fill="#87796f"/><path d="m288.910156 121.027344c-.417968 0-.800781-.050782-1.132812-.152344-1.0625-.335938-1.886719-1.117188-2.253906-2.136719-1.375-3.808593-2.292969-7.300781-2.292969-11.960937 0-40.230469 34.171875-72.960938 76.175781-72.960938 42 0 76.171875 32.730469 76.171875 72.960938l.007813.773437c.054687 3.574219.152343 10.179688-4.367188 12.03125-.105469.121094-.222656.234375-.347656.339844-.652344.53125-1.496094.765625-2.335938.644531-8.960937-1.304687-17.753906-8.039062-23.519531-18.015625-1.1875-2.0625-2.203125-4.203125-3.027344-6.375l-.15625-.402343c-7.652343-20.1875-11.386719-20.507813-12.050781-20.378907-9.46875 1.976563-19.691406 2.976563-30.375 2.976563-10.6875 0-20.910156-1-30.378906-2.976563-.664063-.121093-4.398438.191407-12.050782 20.382813l-.152343.398437c-.824219 2.171875-1.84375 4.316407-3.027344 6.371094-3.082031 5.328125-7.128906 9.839844-11.703125 13.0625-.09375.058594-8.761719 5.417969-13.183594 5.417969zm70.492188-81.214844c-38.691406 0-70.171875 30.039062-70.171875 66.964844 0 3.03125.449219 5.367187 1.25 7.90625 2.554687-.9375 7.101562-3.289063 8.179687-4 3.847656-2.707032 7.289063-6.566406 9.9375-11.136719 1.023438-1.773437 1.90625-3.628906 2.617188-5.503906l.148437-.390625c5.121094-13.511719 10.957031-25.78125 18.886719-24.128906 9.070312 1.886718 18.878906 2.847656 29.15625 2.847656 10.273438 0 20.082031-.960938 29.152344-2.847656 7.9375-1.652344 13.765625 10.613281 18.886718 24.121093l.152344.402344c.710938 1.875 1.589844 3.726563 2.617188 5.507813 4.554687 7.878906 11.15625 13.332031 17.875 14.832031.234375-.117188.488281-.230469.773437-.328125.332031-.347656.792969-1.800782.726563-6.421875l-.007813-.859375c-.003906-36.925782-31.484375-66.964844-70.179687-66.964844zm0 0" fill="#3a312a"/><path d="m317.195312 231.414062 14.433594-10.878906 27.84375 36.945313-14.433594 10.878906zm0 0" fill="#87796f"/><path d="m345.03125 271.378906c-.910156 0-1.808594-.414062-2.398438-1.195312l-27.84375-36.949219c-.480468-.632813-.6875-1.433594-.574218-2.21875.109375-.789063.527344-1.5 1.164062-1.980469l14.433594-10.875c.636719-.476562 1.4375-.683594 2.222656-.574218.789063.109374 1.5.527343 1.976563 1.160156l27.84375 36.949218c1 1.324219.734375 3.203126-.589844 4.203126l-14.429687 10.875c-.542969.40625-1.175782.605468-1.804688.605468zm-23.644531-39.355468 24.230469 32.152343 9.644531-7.265625-24.234375-32.15625zm0 0" fill="#3a312a"/><path d="m373.785156 268.363281-14.429687-10.878906 27.84375-36.945313 14.433593 10.878907zm0 0" fill="#87796f"/><g fill="#3a312a"><path d="m373.777344 271.378906c-.628906 0-1.261719-.199218-1.804688-.605468l-14.433594-10.875c-.636718-.476563-1.054687-1.191407-1.167968-1.976563-.109375-.792969.097656-1.589844.578125-2.222656l27.84375-36.949219c.476562-.636719 1.191406-1.054688 1.976562-1.164062.789063-.109376 1.589844.097656 2.222657.574218l14.433593 10.878906c1.324219.996094 1.585938 2.878907.589844 4.199219l-27.84375 36.949219c-.585937.777344-1.488281 1.191406-2.394531 1.191406zm-10.230469-14.46875 9.640625 7.265625 24.230469-32.152343-9.640625-7.265626zm0 0"/><path d="m302.417969 311.589844c-1.660157 0-3-1.34375-3-3v-29.03125c0-1.65625 1.339843-3 3-3 1.65625 0 3 1.34375 3 3v29.03125c0 1.65625-1.34375 3-3 3zm0 0"/><path d="m416.390625 311.589844c-1.660156 0-3-1.34375-3-3v-29.03125c0-1.65625 1.339844-3 3-3 1.65625 0 3 1.34375 3 3v29.03125c0 1.65625-1.34375 3-3 3zm0 0"/><path d="m358.585938 183.460938c-10.378907 0-17.863282-4.667969-22.246094-13.871094-.710938-1.496094-.074219-3.285156 1.421875-3.996094 1.496093-.710938 3.285156-.078125 3.996093 1.417969 3.394532 7.125 8.742188 10.449219 16.828126 10.449219 10.203124 0 15.402343-6.679688 16.726562-10.210938.578125-1.550781 2.304688-2.34375 3.859375-1.757812 1.554687.582031 2.339844 2.308593 1.757813 3.863281-2.542969 6.792969-10.621094 14.105469-22.34375 14.105469zm0 0"/></g><path d="m436.984375 48.382812s-34.171875 35.878907-76.328125 35.878907-57.335938-16.0625-57.335938-35.878907c0-19.8125 15.179688-35.875 57.335938-35.875s76.328125 35.875 76.328125 35.875zm0 0" fill="#87796f" fill-rule="evenodd"/><path d="m360.65625 87.265625c-52.5 0-60.335938-24.359375-60.335938-38.882813 0-14.519531 7.835938-38.875 60.335938-38.875 42.945312 0 77.070312 35.304688 78.5 36.808594 1.105469 1.160156 1.105469 2.980469 0 4.136719-1.429688 1.503906-35.554688 36.8125-78.5 36.8125zm0-71.757813c-35.546875 0-54.335938 11.367188-54.335938 32.875 0 21.511719 18.789063 32.882813 54.335938 32.882813 34.59375 0 64.066406-25.367187 72.039062-32.878906-7.984374-7.511719-37.5-32.878907-72.039062-32.878907zm0 0" fill="#3a312a"/><path d="m149.488281 250.445312h151.734375v173.671876h-151.734375zm0 0" fill="#87796f"/><path d="m301.21875 427.117188h-151.730469c-1.660156 0-3-1.34375-3-3v-173.671876c0-1.65625 1.339844-3 3-3h151.730469c1.660156 0 3 1.34375 3 3v173.671876c0 1.65625-1.339844 3-3 3zm-148.730469-6h145.730469v-167.671876h-145.730469zm0 0" fill="#3a312a"/><path d="m316.171875 448.875v-18.382812c0-22.386719-18.144531-40.53125-40.53125-40.53125h-26.777344v-17.402344c-7.40625 5.136718-15.070312 8.164062-22.507812 8.164062-7.132813 0-14.660157-3.058594-22.035157-8.253906h-.457031v17.492188h-26.792969c-22.386718 0-40.527343 18.144531-40.527343 40.53125v18.382812zm0 0" fill="#fce8cb"/><path d="m316.171875 451.875h-179.628906c-1.65625 0-3-1.34375-3-3v-18.382812c0-24.003907 19.527343-43.53125 43.53125-43.53125h23.789062v-14.492188c0-1.65625 1.34375-3 3-3h.457031c.617188 0 1.222657.191406 1.726563.546875 7.261719 5.113281 14.09375 7.707031 20.308594 7.707031 6.5 0 13.496093-2.566406 20.800781-7.628906.914062-.636719 2.109375-.710938 3.097656-.195312.988282.519531 1.609375 1.542968 1.609375 2.660156v14.402344h23.777344c24.003906 0 43.53125 19.527343 43.53125 43.527343v18.382813c0 1.660156-1.34375 3.003906-3 3.003906zm-176.628906-6h173.628906v-15.382812c0-20.695313-16.835937-37.53125-37.53125-37.53125h-26.777344c-1.660156 0-3-1.34375-3-3v-11.964844c-6.6875 3.804687-13.230469 5.726562-19.507812 5.726562-6.183594 0-12.71875-2.027344-19.492188-6.03125v12.269532c0 1.65625-1.339843 3-3 3h-26.789062c-20.695313 0-37.53125 16.835937-37.53125 37.53125zm0 0" fill="#3a312a"/><path d="m316.171875 448.875v-18.394531c0-22.386719-18.144531-40.53125-40.527344-40.53125h-6.40625l.164063.121093-27.851563 36.941407-14.375-10.828125-14.371093 10.828125-27.855469-36.941407.164062-.121093h-8.039062c-22.386719 0-40.53125 18.148437-40.53125 40.53125v18.394531zm0 0" fill="#f16c7a"/><path d="m316.171875 451.875h-179.628906c-1.65625 0-3-1.34375-3-3v-18.394531c0-24.003907 19.527343-43.53125 43.53125-43.53125h8.039062c1.300781 0 2.453125.835937 2.855469 2.070312.011719.039063.023438.078125.035156.121094l25.386719 33.667969 11.976563-9.023438c1.070312-.804687 2.542968-.804687 3.613281 0l11.980469 9.023438 25.382812-33.667969c.011719-.039063.023438-.078125.035156-.117187.402344-1.234376 1.554688-2.074219 2.855469-2.074219h6.40625c24.003906 0 43.53125 19.527343 43.53125 43.53125v18.394531c0 1.65625-1.339844 3-3 3zm-176.628906-6h173.628906v-15.394531c0-20.695313-16.835937-37.53125-37.527344-37.53125h-4.65625l-27.042969 35.867187c-1 1.320313-2.878906 1.582032-4.199218.589844l-12.570313-9.46875-12.570312 9.46875c-1.320313.992188-3.199219.730469-4.199219-.589844l-27.042969-35.867187h-6.289062c-20.695313 0-37.53125 16.835937-37.53125 37.527343zm0 0" fill="#3a312a"/><path d="m172.570312 287.542969c-1.074218-8.742188-9.03125-14.957031-17.773437-13.882813-8.742187 1.070313-14.957031 9.027344-13.882813 17.769532 1.074219 8.742187 9.03125 14.960937 17.769532 13.886718 8.742187-1.074218 14.960937-9.03125 13.886718-17.773437zm0 0" fill="#fce8cb" fill-rule="evenodd"/><path d="m156.761719 308.4375c-10.445313 0-18.945313-8.5-18.945313-18.949219s8.5-18.949219 18.945313-18.949219c10.449219 0 18.949219 8.5 18.949219 18.949219s-8.5 18.949219-18.949219 18.949219zm0-31.894531c-7.136719 0-12.945313 5.808593-12.945313 12.949219 0 7.136718 5.804688 12.949218 12.945313 12.949218s12.949219-5.808594 12.949219-12.949218c0-7.140626-5.808594-12.949219-12.949219-12.949219zm0 0" fill="#3a312a"/><path d="m311.90625 289.488281c0 8.808594-7.140625 15.949219-15.949219 15.949219-8.808593 0-15.949219-7.140625-15.949219-15.949219 0-8.804687 7.140626-15.945312 15.949219-15.945312 8.808594 0 15.949219 7.140625 15.949219 15.945312zm0 0" fill="#fce8cb" fill-rule="evenodd"/><path d="m295.957031 308.4375c-10.449219 0-18.949219-8.5-18.949219-18.949219s8.5-18.949219 18.949219-18.949219 18.949219 8.5 18.949219 18.949219-8.5 18.949219-18.949219 18.949219zm0-31.894531c-7.136719 0-12.949219 5.808593-12.949219 12.949219 0 7.136718 5.808594 12.949218 12.949219 12.949218 7.136719 0 12.949219-5.808594 12.949219-12.949218 0-7.140626-5.808594-12.949219-12.949219-12.949219zm0 0" fill="#3a312a"/><path d="m297.058594 281.746094c0 39.046875-37.605469 98.976562-70.699219 98.976562-31.589844 0-70.699219-59.929687-70.699219-98.976562 0-39.042969 31.652344-70.695313 70.699219-70.695313s70.699219 31.652344 70.699219 70.695313zm0 0" fill="#fce8cb"/><path d="m226.359375 383.726562c-15.6875 0-33.789063-13.175781-49.660156-36.140624-14.828125-21.453126-24.035157-46.683594-24.035157-65.835938 0-40.636719 33.0625-73.699219 73.699219-73.699219s73.699219 33.0625 73.699219 73.699219c0 19.367188-8.992188 44.589844-23.460938 65.820312-15.664062 22.976563-33.972656 36.15625-50.242187 36.15625zm0-169.675781c-37.328125 0-67.695313 30.371094-67.695313 67.699219 0 36.46875 37.820313 95.976562 67.695313 95.976562 14.042969 0 30.96875-12.539062 45.28125-33.535156 13.828125-20.292968 22.417969-44.214844 22.417969-62.445312 0-37.324219-30.371094-67.695313-67.699219-67.695313zm0 0" fill="#3a312a"/><path d="m208.300781 280.949219c0 3.8125-3.089843 6.902343-6.898437 6.902343-3.8125 0-6.902344-3.089843-6.902344-6.902343 0-3.808594 3.089844-6.898438 6.902344-6.898438 3.808594 0 6.898437 3.089844 6.898437 6.898438zm0 0" fill="#3a312a"/><path d="m258.222656 280.949219c0 3.8125-3.089844 6.902343-6.902344 6.902343-3.808593 0-6.898437-3.089843-6.898437-6.902343 0-3.808594 3.089844-6.898438 6.898437-6.898438 3.8125 0 6.902344 3.089844 6.902344 6.898438zm0 0" fill="#3a312a"/><path d="m199.496094 301.464844c0 4.910156-5.324219 8.886718-11.886719 8.886718s-11.886719-3.976562-11.886719-8.886718c0-4.90625 5.324219-8.886719 11.886719-8.886719s11.886719 3.980469 11.886719 8.886719zm0 0" fill="#f5978a"/><path d="m277 301.464844c0 4.910156-5.324219 8.886718-11.886719 8.886718s-11.886719-3.976562-11.886719-8.886718c0-4.90625 5.324219-8.886719 11.886719-8.886719s11.886719 3.980469 11.886719 8.886719zm0 0" fill="#f5978a"/><path d="m184.976562 390.050781 14.433594-10.878906 27.84375 36.945313-14.433594 10.878906zm0 0" fill="#87796f"/><path d="m212.804688 430.011719c-.910157 0-1.808594-.414063-2.398438-1.199219l-27.84375-36.945312c-.480469-.632813-.6875-1.433594-.578125-2.222657.109375-.785156.53125-1.5 1.164063-1.976562l14.433593-10.875c1.324219-.996094 3.203125-.734375 4.203125.589843l27.84375 36.945313c.480469.636719.6875 1.4375.574219 2.222656-.109375.789063-.527344 1.5-1.164063 1.980469l-14.433593 10.875c-.539063.40625-1.171875.605469-1.800781.605469zm-23.644532-39.359375 24.234375 32.15625 9.640625-7.265625-24.234375-32.15625zm0 0" fill="#3a312a"/><path d="m241.566406 427-14.433594-10.875 27.847657-36.949219 14.433593 10.878907zm0 0" fill="#87796f"/><path d="m241.550781 430.011719c-.628906 0-1.265625-.199219-1.804687-.605469l-14.433594-10.878906c-.636719-.476563-1.054688-1.191406-1.164062-1.976563-.113282-.789062.09375-1.589843.574218-2.222656l27.84375-36.945313c1-1.324218 2.878906-1.585937 4.203125-.59375l14.429688 10.878907c.636719.476562 1.054687 1.191406 1.164062 1.976562.113281.789063-.09375 1.585938-.574219 2.222657l-27.84375 36.945312c-.589843.785156-1.488281 1.199219-2.394531 1.199219zm-10.230469-14.46875 9.640626 7.265625 24.230468-32.152344-9.640625-7.265625zm0 0" fill="#3a312a"/><path d="m226.359375 342.09375c-10.378906 0-17.863281-4.664062-22.246094-13.871094-.710937-1.496094-.074219-3.285156 1.421875-4 1.492188-.703125 3.285156-.074218 3.996094 1.421875 3.394531 7.128907 8.742188 10.449219 16.828125 10.449219 10.203125 0 15.402344-6.679688 16.722656-10.210938.582031-1.554687 2.308594-2.34375 3.863281-1.757812 1.550782.582031 2.335938 2.308594 1.757813 3.863281-2.542969 6.792969-10.621094 14.105469-22.34375 14.105469zm0 0" fill="#3a312a"/><path d="m306.820312 255.742188c0 7.273437-.941406 14.324218-2.726562 21.039062-18.105469-8.769531-35.332031-19.53125-51.289062-31.699219-4.683594-3.5625-9.289063-7.273437-13.691407-11.207031-5.402343-4.761719-10.511719-9.894531-15.121093-15.449219-10.023438-12.125-17.386719-26.050781-23.613282-40.554687 7.863282-2.558594 16.253906-3.933594 24.96875-3.933594 23.304688 0 44.328125 9.832031 59.179688 25.59375 13.824218 14.652344 22.292968 34.433594 22.292968 56.210938zm0 0" fill="#87796f"/><path d="m304.09375 279.78125c-.445312 0-.894531-.097656-1.308594-.300781-17.84375-8.636719-35.273437-19.410157-51.800781-32.011719-5.277344-4.015625-9.816406-7.730469-13.871094-11.355469-5.792969-5.101562-10.988281-10.414062-15.429687-15.773437-8.992188-10.871094-16.632813-23.988282-24.0625-41.285156-.332032-.773438-.324219-1.65625.023437-2.421876.347657-.769531 1.003907-1.355468 1.804688-1.613281 8.320312-2.710937 17.035156-4.082031 25.894531-4.082031 23.445312 0 45.238281 9.425781 61.367188 26.535156 14.898437 15.792969 23.105468 36.488282 23.105468 58.269532 0 7.414062-.953125 14.75-2.824218 21.808593-.230469.867188-.835938 1.585938-1.648438 1.960938-.394531.179687-.824219.269531-1.25.269531zm-99.613281-100.015625c6.769531 15.242187 13.75 26.980469 21.824219 36.746094 4.242187 5.117187 9.21875 10.203125 14.792968 15.109375 3.953125 3.535156 8.371094 7.152344 13.523438 11.074218 15.175781 11.570313 31.117187 21.5625 47.433594 29.734376 1.171874-5.445313 1.765624-11.042969 1.765624-16.691407 0-20.246093-7.625-39.476562-21.472656-54.152343-14.984375-15.898438-35.226562-24.652344-57-24.652344-7.109375.003906-14.113281.953125-20.867187 2.832031zm0 0" fill="#3a312a"/><path d="m284.527344 199.53125c-14.015625 12.832031-29.265625 24.1875-45.414063 34.34375-28.632812 18.023438-60.035156 32.246094-92.171875 44.089844-1.988281-7.070313-3.046875-14.519532-3.046875-22.222656 0-36.429688 23.714844-67.300782 56.488281-77.871094 7.859376-2.558594 16.25-3.933594 24.964844-3.933594 23.304688 0 44.328125 9.832031 59.179688 25.59375zm0 0" fill="#87796f"/><path d="m146.941406 280.964844c-.46875 0-.9375-.109375-1.363281-.328125-.746094-.378907-1.300781-1.054688-1.523437-1.859375-2.097657-7.453125-3.160157-15.203125-3.160157-23.035156 0-36.984376 23.535157-69.425782 58.566407-80.726563 8.3125-2.707031 17.023437-4.078125 25.886718-4.078125 23.445313 0 45.238282 9.421875 61.367188 26.535156.550781.582032.84375 1.367188.8125 2.167969-.027344.800781-.378906 1.558594-.96875 2.101563-13.511719 12.371093-28.9375 24.035156-45.847656 34.667968-26.285157 16.546875-56.617188 31.058594-92.734376 44.367188-.335937.125-.683593.1875-1.035156.1875zm78.40625-104.027344c-8.230468 0-16.320312 1.273438-24.039062 3.785156-32.550782 10.5-54.414063 40.648438-54.414063 75.019532 0 6.183593.710938 12.308593 2.117188 18.253906 34.355469-12.84375 63.332031-26.8125 88.503906-42.65625 15.65625-9.847656 30.003906-20.582032 42.691406-31.9375-14.742187-14.511719-34.105469-22.464844-54.859375-22.464844zm0 0" fill="#3a312a"/><path d="m65.300781 373.417969s6.816407 25.316406 26.445313 26.492187c0 0-26.199219 9.050782-26.644532 28.402344 0 0-5.15625-27.140625-25.847656-28.117188-.003906.003907 24.097656-3.648437 26.046875-26.777343zm0 0" fill="#d7e057"/><path d="m65.097656 431.316406c-1.421875 0-2.667968-1.011718-2.941406-2.433594-.050781-.25-4.992188-24.835937-23.046875-25.6875-1.539063-.074218-2.773437-1.300781-2.855469-2.84375-.078125-1.539062 1.023438-2.886718 2.546875-3.121093.882813-.136719 21.789063-3.632813 23.511719-24.0625.121094-1.453125 1.265625-2.605469 2.714844-2.734375 1.441406-.132813 2.789062.792968 3.167968 2.203125.0625.230469 6.519532 23.25 23.726563 24.285156 1.429687.085937 2.59375 1.167969 2.792969 2.582031.195312 1.417969-.636719 2.777344-1.988282 3.242188-.242187.085937-24.234374 8.625-24.625 25.640625-.035156 1.535156-1.21875 2.789062-2.75 2.917969-.085937.003906-.167968.011718-.253906.011718zm-15.480468-31.460937c7.757812 3.9375 12.460937 11.492187 15.175781 17.753906 4.050781-8.042969 11.882812-13.574219 17.894531-16.855469-8.269531-3.6875-13.566406-11.300781-16.667969-17.445312-3.585937 8.71875-10.539062 13.738281-16.402343 16.546875zm0 0" fill="#3a312a"/><path d="m21.902344 407.378906s4.824218 17.910156 18.703125 18.738282c0 0-18.53125 6.402343-18.84375 20.09375 0 0-3.648438-19.199219-18.28125-19.890626-.003907 0 17.042969-2.582031 18.421875-18.941406zm0 0" fill="#d7e057"/><path d="m21.757812 449.210938c-1.425781 0-2.671874-1.015626-2.945312-2.441407-.03125-.164062-3.40625-16.882812-15.476562-17.453125-1.539063-.074218-2.773438-1.300781-2.855469-2.84375-.078125-1.539062 1.023437-2.886718 2.546875-3.121094.589844-.09375 14.726562-2.484374 15.882812-16.226562.121094-1.449219 1.269532-2.605469 2.722656-2.734375 1.445313-.128906 2.78125.796875 3.164063 2.203125.039063.160156 4.453125 15.839844 15.984375 16.53125 1.429688.082031 2.601562 1.167969 2.792969 2.585938.195312 1.417968-.636719 2.773437-1.992188 3.242187-.160156.058594-16.5625 5.90625-16.824219 17.324219-.035156 1.535156-1.222656 2.792968-2.753906 2.921875-.078125.007812-.164062.011719-.246094.011719zm-9.035156-23.058594c4.210938 2.664062 7.046875 6.792968 8.894532 10.558594 2.75-4.464844 7.03125-7.742188 10.730468-9.945313-4.574218-2.535156-7.769531-6.699219-9.882812-10.449219-2.347656 4.578125-6.03125 7.753906-9.742188 9.835938zm0 0" fill="#3a312a"/><path d="m21.902344 354.066406s4.824218 17.90625 18.703125 18.738282c0 0-18.53125 6.402343-18.84375 20.089843 0 0-3.648438-19.199219-18.28125-19.886719-.003907 0 17.042969-2.582031 18.421875-18.941406zm0 0" fill="#d7e057"/><path d="m21.757812 395.894531c-1.425781 0-2.671874-1.015625-2.941406-2.4375-.035156-.164062-3.410156-16.886719-15.480468-17.453125-1.539063-.074218-2.773438-1.300781-2.855469-2.84375-.078125-1.539062 1.023437-2.886718 2.546875-3.121094.589844-.09375 14.726562-2.488281 15.882812-16.226562.121094-1.453125 1.269532-2.605469 2.722656-2.738281 1.453126-.128907 2.78125.800781 3.164063 2.207031.039063.15625 4.453125 15.839844 15.984375 16.527344 1.429688.085937 2.601562 1.167968 2.792969 2.585937.195312 1.417969-.636719 2.777344-1.992188 3.246094-.160156.054687-16.5625 5.90625-16.824219 17.324219-.035156 1.535156-1.222656 2.796875-2.753906 2.921875-.078125.003906-.164062.007812-.246094.007812zm-9.035156-23.054687c4.214844 2.664062 7.046875 6.789062 8.894532 10.558594 2.75-4.464844 7.03125-7.746094 10.730468-9.945313-4.574218-2.535156-7.769531-6.699219-9.882812-10.449219-2.347656 4.574219-6.03125 7.753906-9.742188 9.835938zm0 0" fill="#3a312a"/><path d="m146.480469 305.382812v.199219h-31.421875v-.199219c-5.199219-3.378906-8.660156-9.242187-8.660156-15.902343 0-5.21875 2.140624-9.976563 5.582031-13.398438-.480469-1.921875-.902344-3.859375-1.222657-5.820312.042969-.019531.0625-.058594.082032-.078125l.960937-1.261719 26.078125-34.601563h4.660156c.378907 0 .738282.042969 1.101563.042969-1.78125 6.898438-2.742187 14.097657-2.742187 21.480469 0 6.859375.859374 13.636719 2.5 20.238281-3.4375 3.421875-5.578126 8.179688-5.578126 13.398438 0 6.660156 3.457032 12.523437 8.660157 15.902343zm0 0" fill="#6ca8bf"/><path d="m445.398438 271.84375v33.738281h-26v-26.019531c0-1.660156-1.359376-3-3-3-1 0-1.878907.480469-2.417969 1.238281v-5.957031c0-12.660156-6.300781-23.882812-15.941407-30.660156l5.179688-6.863282h4.660156c20.679688 0 37.519532 16.820313 37.519532 37.523438zm0 0" fill="#b9c239"/><path d="m313.179688 430.480469v15.402343h-31.421876v-15.402343c0-12.660157-6.296874-23.878907-15.9375-30.679688l5.179688-6.859375h4.640625c20.699219 0 37.539063 16.839844 37.539063 37.539063zm0 0" fill="#d34e5c"/></svg>