<?xml version="1.0" encoding="iso-8859-1"?>
<!-- Generator: Adobe Illustrator 19.0.0, SVG Export Plug-In . SVG Version: 6.00 Build 0)  -->
<svg version="1.1" id="Capa_1" xmlns="http://www.w3.org/2000/svg" xmlns:xlink="http://www.w3.org/1999/xlink" x="0px" y="0px"
	 viewBox="0 0 512 512" style="enable-background:new 0 0 512 512;" xml:space="preserve">
<rect x="110.933" y="68.267" style="fill:#77BAFC;" width="290.133" height="358.4"/>
<path d="M128,85.333h221.867V68.267H128v-25.6c0-14.14,11.46-25.6,25.6-25.6h204.8c14.14,0,25.6,11.46,25.6,25.6v102.4h17.067
	v-102.4C401.041,19.115,381.952,0.026,358.4,0H153.6c-23.552,0.026-42.641,19.115-42.667,42.667v102.4H128V85.333z"/>
<path d="M384,409.6H162.133v17.067H384v42.667c0,14.14-11.46,25.6-25.6,25.6H153.6c-14.14,0-25.6-11.46-25.6-25.6V384h-17.067
	v85.333c0.026,23.552,19.115,42.641,42.667,42.667h204.8c23.552-0.026,42.641-19.115,42.667-42.667V384H384V409.6z"/>
<rect x="247.467" y="452.267" width="17.067" height="17.067"/>
<rect x="187.733" y="34.133" width="17.067" height="17.067"/>
<rect x="221.867" y="34.133" width="17.067" height="17.067"/>
<path d="M145.067,110.933v34.133h17.067v-25.6h25.6V102.4H153.6C148.89,102.4,145.067,106.223,145.067,110.933z"/>
<path d="M426.667,162.133H85.333c-14.14,0-25.6,11.46-25.6,25.6v153.6c0,14.14,11.46,25.6,25.6,25.6h341.333
	c14.14,0,25.6-11.46,25.6-25.6v-153.6C452.267,173.594,440.806,162.133,426.667,162.133z M435.2,341.333
	c0,4.71-3.823,8.533-8.533,8.533H85.333c-4.71,0-8.533-3.823-8.533-8.533v-153.6c0-4.71,3.823-8.533,8.533-8.533h341.333
	c4.71,0,8.533,3.823,8.533,8.533V341.333z"/>
<path d="M412.8,226.014c-14.967-6.101-26.846-17.98-32.947-32.947c-1.306-3.226-4.437-5.333-7.91-5.333h-47.676V204.8h42.163
	c7.492,14.993,19.644,27.145,34.637,34.637v50.193c-14.993,7.492-27.145,19.644-34.637,34.637h-25.097v17.067h30.609
	c3.473,0,6.605-2.108,7.91-5.333c6.101-14.967,17.98-26.846,32.947-32.947c3.226-1.306,5.333-4.437,5.333-7.91v-61.218
	C418.133,230.451,416.026,227.319,412.8,226.014z"/>
<path d="M110.933,289.63v-50.193c14.993-7.492,27.145-19.644,34.637-34.637h42.163v-17.067h-47.676c-3.473,0-6.605,2.108-7.91,5.333
	c-6.101,14.967-17.98,26.846-32.947,32.947c-3.226,1.306-5.333,4.437-5.333,7.91v61.218c0,3.473,2.108,6.605,5.333,7.91
	c14.967,6.101,26.846,17.98,32.947,32.947c1.306,3.226,4.437,5.333,7.91,5.333h30.609v-17.067H145.57
	C138.078,309.274,125.926,297.122,110.933,289.63z"/>
<rect x="349.867" y="256" width="17.067" height="17.067"/>
<rect x="145.067" y="256" width="17.067" height="17.067"/>
<path d="M256,187.733c-42.419,0-76.8,34.381-76.8,76.8s34.381,76.8,76.8,76.8s76.8-34.381,76.8-76.8
	C332.749,222.14,298.394,187.785,256,187.733z M256,324.267c-32.99,0-59.733-26.743-59.733-59.733S223.01,204.8,256,204.8
	s59.733,26.743,59.733,59.733C315.699,297.506,288.973,324.233,256,324.267z"/>
<path d="M256,238.933c4.71,0,8.533,3.823,8.533,8.533H281.6c-0.043-10.812-6.878-20.429-17.067-24.03v-10.103h-17.067v10.103
	c-13.303,4.685-20.292,19.268-15.607,32.572c3.61,10.24,13.286,17.075,24.141,17.058c4.71,0,8.533,3.823,8.533,8.533
	s-3.823,8.533-8.533,8.533c-4.71,0-8.533-3.823-8.533-8.533H230.4c0.043,10.812,6.878,20.429,17.067,24.03v10.103h17.067V305.63
	c13.303-4.685,20.292-19.268,15.607-32.572c-3.61-10.24-13.286-17.075-24.141-17.058c-4.71,0-8.533-3.823-8.533-8.533
	S251.29,238.933,256,238.933z"/>
<g>
</g>
<g>
</g>
<g>
</g>
<g>
</g>
<g>
</g>
<g>
</g>
<g>
</g>
<g>
</g>
<g>
</g>
<g>
</g>
<g>
</g>
<g>
</g>
<g>
</g>
<g>
</g>
<g>
</g>
</svg>
