<svg id="Capa_1" enable-background="new 0 0 501 501" height="512" viewBox="0 0 501 501" width="512" xmlns="http://www.w3.org/2000/svg"><g><path d="m495.5 245c0 135.309-109.69 245-244.999 245-135.195 0-245.301-110.363-245-245.558.193-86.656 45.375-162.747 113.429-206.153 3.765-2.402 8.567-2.408 12.395-.107 36.821 22.129 79.937 34.855 126.024 34.855 43.298 0 83.973-11.232 119.27-30.941 3.764-2.102 8.395-1.944 11.955.489 64.557 44.121 106.926 118.32 106.926 202.415z" fill="#ab2538"/><path d="m316.5 369c-104.934 0-190-85.066-190-190 0-82.52 223.847-162.732 262.753-135.949 63.634 43.805 105.537 116.908 106.237 199.837-26.238 73.505-96.47 126.112-178.99 126.112z" fill="#c92e43"/><path d="m337.221 218.179c39.08 29.486 65.522 99.853 65.522 148.808l-31.743 60.561c1.486-35.414-20.776-67.518-54.491-78.459-79.724-25.871-214.786-77.465-214.786-130.089v-86.333l162.251 6.155c-64.474 10.178 12.151 34.178 73.247 79.357z" fill="#f19b0b"/><path d="m371 427.548c0-36.161-23.233-68.232-57.602-79.473-18.033-5.898-38.68-13.051-59.848-21.189-13.281-5.106-23.504-13.178-30.754-22.889-5.414-7.253 3.194-16.642 10.92-11.927 3.249 1.983 6.678 3.931 10.242 5.839 21.893 10.545 46.872 19.563 66.363 25.94 4.251 1.391 13.54 6.373 14.01 6.544 11.992 4.35 20.246 14.08 23.459 25.375 5.416-18.933-4.204-39.791-23.459-46.775-.47-.171-.945-.334-1.423-.489-34.719-11.267-88.369-31.333-109.784-53.563-1.876-1.947-2.69-4.706-2.118-7.348.02-.094.041-.187.061-.281 1.29-5.844 8.327-8.298 13.044-4.614 6.404 5.001 14.228 9.848 22.846 14.462 21.893 10.545 46.872 19.563 66.363 25.94 4.251 1.391 13.54 6.373 14.01 6.544 11.992 4.35 20.246 14.08 23.459 25.375 5.416-18.933-4.204-39.791-23.459-46.775-.47-.171-.945-.334-1.423-.489-28.378-9.209-69.404-24.297-95.136-41.64-4.292-2.893-4.906-9.014-1.222-12.65.258-.255.518-.508.781-.759 2.388-2.28 5.926-2.869 8.95-1.544 13.486 5.91 51.788 22.037 68.04 27.355 4.251 1.391 13.54 6.373 14.01 6.544 11.992 4.35 20.246 14.08 23.459 25.375 9.959-42.685-54.172-57.156-70.109-63.659-8.234-3.36-5.997-15.682 2.894-15.856 10.087-.197 23.371 2.783 39.7 13.479 6.684 4.379 13.411 8.947 19.946 13.779 39.08 29.486 65.522 99.852 65.522 148.808z" fill="#f4aa39"/><path d="m373.572 33.109c-22.993 34.065-59.683 58.401-102.921 64.735l-38.073 5.578c-24.983 3.66-48.643 13.55-68.799 28.758l-62.056 46.82v-32.263c0-2.638.067-5.268.199-7.888l-.199.15v-32.263c0-23.55 5.317-46.444 15.186-67.145 38.424-25.039 84.308-39.591 133.591-39.591 44.861 0 86.907 12.058 123.072 33.109z" fill="#f4aa39"/><path d="m402.944 374.167c0 70.048-56.785 126.833-126.833 126.833-57.921 0-93.68-10.161-114.706-29.67-19.833-10.62-33.843-30.283-45.417-57.065-12.466-28.848-3.334-75.36 26.866-82.782 1.188 6.503 3.838 12.319 7.641 17.39 10.67-14.316 25.802-23.936 42.005-21.206-9.651 41.738 48.5 81.333 103.5 71.083 48.527-9.044 95.5-62.25 55.576-167.367 64.924 58.617 51.368 129.599 51.368 142.784z" fill="#fdcb6b"/><path d="m217.94 157.54c-29.219 14.116-57.747 31.775-81.3 57.31-2.699 2.926-7.523.555-6.884-3.374.988-6.075 2.333-12.079 4.025-17.979-11.1 7.167-21.745 15.461-31.719 25.173v-42.219c2.974-45.076 25.387-86.86 61.717-114.271 20.156-15.208 43.816-25.097 68.799-28.758l38.073-5.578c18.444-2.702 35.696-8.68 51.202-17.291 24.279 7.38 46.961 18.428 67.402 32.498-1.192 87.407-84.804 89.742-171.315 114.489z" fill="#fdcb6b"/><path d="m268.024 500.932c-33.062-.569-58.478-4.687-77.789-12.186-11.757-4.565-58.432-25.484-76.901-74.678-11.988-31.932-.68-75.163 29.521-82.585 1.188 6.503 3.838 12.319 7.641 17.39 10.67-14.316 25.802-23.936 42.005-21.206-.779 3.367-1.115 6.72-1.048 10.035-27.067 10.306-34.876 54-22.964 81.565 11.573 26.782 25.583 46.445 45.417 57.065 12.402 11.509 29.934 19.764 54.118 24.6zm99.237-415.829c-54.135 32.141-151.118 29.776-224.282 83.021-3.498 2.546-7.998-1.563-5.785-5.281 11.593-19.478 29.132-35.16 50.368-44.497 63.587-27.96 134.107-31.712 177.931-56.712l.204.087c9.888 4.22 10.808 17.893 1.564 23.382zm-17.203-64.029c-42.274 14.229-96.724 21.225-146.863 43.272-21.234 9.337-38.772 25.016-50.365 44.492-2.229 3.745 2.307 7.813 5.832 5.25 70.285-51.118 162.531-50.951 217.661-79.353-8.439-5.061-17.207-9.628-26.265-13.661zm35.071 277.673c-.873-2.26-4.268-1.317-3.838 1.067 13.273 73.567-33.144 111.872-80.836 119.42-41.44 6.558-84.398-7.288-106.992-29.044-2.174-2.093-5.717-.003-4.974 2.921 8.212 32.323 60.382 58.722 112.73 54.204-23.684 9.71-49.502 11.135-68.367 5.11-2.887-.922-5.166 2.638-3.115 4.869 19.204 20.892 69.972 21.139 107.151-3.421 13.331-8.807 30.005-18.452 36.612-33.539 0-.001 38.654-51.633 11.629-121.587z" fill="#f4aa39"/><path d="m144.428 295.371-5.123-15.164c-.295-.872-.98-1.557-1.852-1.852l-15.164-5.123c-2.677-.904-2.677-4.69 0-5.594l15.164-5.123c.872-.295 1.557-.98 1.852-1.852l5.123-15.164c.904-2.677 4.69-2.677 5.594 0l5.123 15.164c.295.872.98 1.557 1.852 1.852l15.164 5.123c2.677.904 2.677 4.69 0 5.594l-15.164 5.123c-.872.295-1.557.98-1.852 1.852l-5.123 15.164c-.904 2.677-4.69 2.677-5.594 0zm226.978-157.587 6.941-20.544c.399-1.182 1.327-2.11 2.509-2.509l20.544-6.941c3.626-1.225 3.626-6.354 0-7.579l-20.544-6.941c-1.182-.399-2.11-1.327-2.509-2.509l-6.941-20.544c-1.225-3.626-6.354-3.626-7.579 0l-6.941 20.544c-.399 1.182-1.327 2.11-2.509 2.509l-20.544 6.941c-3.626 1.225-3.626 6.354 0 7.579l20.544 6.941c1.182.399 2.11 1.327 2.509 2.509l6.941 20.544c1.225 3.626 6.354 3.626 7.579 0zm25.03 287.05 5.123-15.164c.295-.872.98-1.557 1.852-1.852l15.164-5.123c2.677-.904 2.677-4.69 0-5.594l-15.164-5.123c-.872-.295-1.557-.98-1.852-1.852l-5.123-15.164c-.904-2.677-4.69-2.677-5.594 0l-5.123 15.164c-.295.872-.98 1.557-1.852 1.852l-15.164 5.123c-2.677.904-2.677 4.69 0 5.594l15.164 5.123c.872.295 1.557.98 1.852 1.852l5.123 15.164c.904 2.676 4.689 2.676 5.594 0z" fill="#fff5f5"/></g></svg>