<svg id="Capa_1" enable-background="new 0 0 512 512" height="512" viewBox="0 0 512 512" width="512" xmlns="http://www.w3.org/2000/svg"><g><g><path d="m215 512h-200c-8.284 0-15-6.716-15-15v-260c0-36.381 16.759-69.859 45.98-91.849 2.6-1.957 5.766-3.015 9.02-3.015h120c3.254 0 6.419 1.058 9.02 3.015 29.221 21.99 45.98 55.468 45.98 91.849v260c0 8.284-6.716 15-15 15z" fill="#f2d1a5"/><g><path d="m184.02 145.151c-2.6-1.957-5.766-3.015-9.02-3.015h-60v369.864h100c8.284 0 15-6.716 15-15v-260c0-36.381-16.759-69.859-45.98-91.849z" fill="#f2bb88"/></g><g><path d="m115 62c-41.355 0-75 33.645-75 75v120c0 11.636 2.664 22.662 7.414 32.5h135.172c4.75-9.838 7.414-20.864 7.414-32.5v-120c0-41.355-33.645-75-75-75z" fill="#ff80aa"/><g><path d="m115 62v227.5h67.586c4.75-9.838 7.414-20.864 7.414-32.5v-120c0-41.355-33.645-75-75-75z" fill="#ff3c7d"/></g><ellipse cx="115" cy="289.5" fill="#ffa2c1" rx="67.586" ry="42.5"/><g><g><path d="m115 247v85c29.719 0 55.455-17.375 67.586-42.5-12.131-25.125-37.867-42.5-67.586-42.5z" fill="#ff80aa"/></g></g></g></g><g><path d="m333.912 244.964 9.785-55.448 53.225-53.225c5.858-5.858 5.858-15.355 0-21.213s-15.355-5.858-21.213 0l-53.225 53.225-55.448 9.785c-8.158 1.44-13.605 9.22-12.165 17.379 1.441 8.159 9.22 13.605 17.379 12.165l39.002-6.883-6.883 39.002c-.884 5.012.829 9.879 4.174 13.224 2.101 2.1 4.844 3.599 7.992 4.155 8.156 1.439 15.937-4.007 17.377-12.166z" fill="#ff80aa"/><g><path d="m333.912 244.964 9.785-55.448 53.225-53.225c5.858-5.858 5.858-15.355 0-21.213l-85.671 85.671-6.883 39.002c-.884 5.012.829 9.879 4.174 13.224 2.101 2.1 4.844 3.599 7.992 4.155 8.157 1.439 15.938-4.007 17.378-12.166z" fill="#ff3c7d"/></g><path d="m403.993 164.576-56.569-56.569c-5.858-5.858-5.858-15.355 0-21.213l70.711-70.711c21.445-21.445 56.337-21.445 77.782 0s21.445 56.337 0 77.782l-70.711 70.711c-5.858 5.858-15.355 5.858-21.213 0z" fill="#5e54ac"/><g><g><path d="m495.917 16.083-120.209 120.209 28.284 28.284c5.858 5.858 15.355 5.858 21.213 0l70.711-70.711c21.445-21.444 21.445-56.337.001-77.782z" fill="#453d81"/></g></g></g><g><path d="m447 352h-80c-8.284 0-15-6.716-15-15v-55c0-8.284 6.716-15 15-15h80c8.284 0 15 6.716 15 15v55c0 8.284-6.716 15-15 15z" fill="#fff5f5"/><path d="m462 337v-55c0-8.284-6.716-15-15-15h-40v85h40c8.284 0 15-6.716 15-15z" fill="#e7f1f9"/><path d="m467 322h-120c-24.813 0-45 20.187-45 45v130c0 8.284 6.716 15 15 15h45l150-130v-15c0-24.813-20.187-45-45-45z" fill="#ff80aa"/><g><path d="m512 367c0-24.813-20.187-45-45-45h-60v151l105-91z" fill="#ff3c7d"/></g><path d="m497 512h-135v-115c0-8.284 6.716-15 15-15h135v115c0 8.284-6.716 15-15 15z" fill="#fff5f5"/><g><g><path d="m407 382v130h90c8.284 0 15-6.716 15-15v-115z" fill="#e7f1f9"/></g></g></g></g></svg>