<svg id="icons" enable-background="new 0 0 64 64" height="512" viewBox="0 0 64 64" width="512" xmlns="http://www.w3.org/2000/svg"><path d="m54 55v4h-4-40v-50-4h4v40 10z" fill="#ccd1d9"/><path d="m58 45v10h-4-40v-10h6 8 28.01z" fill="#e6e9ed"/><path d="m50 59v4h-44v-54h4v50z" fill="#e6e9ed"/><path d="m56.01 44.99v.01h-28.01v-.01l6.03-7.75 7.97-10.24z" fill="#656d78"/><path d="m30 32 4.03 5.24-6.03 7.75v.01h-8z" fill="#545c66"/><path d="m58 1v44h-1.99v-.01l-14.01-17.99-7.97 10.24-4.03-5.24-10 13h-6v-40-4zm-29.99 12.5c0-1.38-1.12-2.5-2.5-2.5s-2.5 1.12-2.5 2.5 1.12 2.5 2.5 2.5 2.5-1.12 2.5-2.5z" fill="#5d9cec"/><circle cx="25.51" cy="13.5" fill="#ffce54" r="2.5"/><path d="m10 5h4v44h-4z" fill="#4a89dc"/><path d="m6 9h4v44h-4z" fill="#5d9cec"/><path d="m50 64h-44c-.553 0-1-.447-1-1v-54c0-.553.447-1 1-1h3.999c.553 0 1 .447 1 1s-.447 1-1 1h-2.999v52h42v-3c0-.553.447-1 1-1s1 .447 1 1v4c0 .553-.447 1-1 1z" fill="#e6e9ed"/><path d="m54 60h-44c-.553 0-1-.447-1-1v-54c0-.553.447-1 1-1h3.999c.553 0 1 .447 1 1s-.447 1-1 1h-2.999v52h42v-3c0-.553.447-1 1-1s1 .447 1 1v4c0 .553-.447 1-1 1z" fill="#ccd1d9"/><path d="m45 51h-18c-.553 0-1-.447-1-1s.447-1 1-1h18c.553 0 1 .447 1 1s-.447 1-1 1z" fill="#ccd1d9"/><path d="m34.032 38.242c-.3 0-.597-.134-.794-.391l-4.032-5.24c-.336-.438-.255-1.064.184-1.402.438-.336 1.064-.254 1.402.184l4.032 5.24c.336.438.255 1.065-.184 1.402-.181.14-.395.207-.608.207z" fill="#545c66"/><path d="m19.996 46c-.213 0-.427-.067-.609-.207-.438-.337-.519-.965-.183-1.403l10.003-12.997c.337-.438.963-.521 1.403-.184.438.338.519.965.183 1.402l-10.003 12.999c-.197.256-.494.39-.794.39z" fill="#545c66"/><path d="m25.503 17.002c-1.93 0-3.5-1.57-3.5-3.5s1.57-3.5 3.5-3.5 3.5 1.57 3.5 3.5-1.57 3.5-3.5 3.5zm0-5c-.827 0-1.5.672-1.5 1.5 0 .826.673 1.5 1.5 1.5s1.5-.674 1.5-1.5c0-.828-.673-1.5-1.5-1.5z" fill="#ffce54"/><g fill="#e6e9ed"><path d="m14 56c-.553 0-1-.447-1-1v-10c0-.553.447-1 1-1s1 .447 1 1v10c0 .553-.447 1-1 1z"/><path d="m58 56c-.553 0-1-.447-1-1v-10c0-.553.447-1 1-1s1 .447 1 1v10c0 .553-.447 1-1 1z"/><path d="m58 56h-44c-.553 0-1-.447-1-1s.447-1 1-1h44c.553 0 1 .447 1 1s-.447 1-1 1z"/></g><path d="m56.004 45.994c-.298 0-.593-.133-.79-.386l-14.003-17.994c-.339-.437-.261-1.064.175-1.403.436-.34 1.063-.262 1.403.175l14.003 17.994c.339.436.261 1.064-.175 1.403-.182.143-.398.211-.613.211z" fill="#656d78"/><path d="m27.997 45.994c-.215 0-.431-.068-.613-.211-.436-.339-.514-.968-.175-1.403l14.003-17.994c.339-.437.967-.515 1.403-.175.436.339.514.967.175 1.403l-14.003 17.994c-.197.253-.492.386-.79.386z" fill="#656d78"/><path d="m58 46h-44c-.553 0-1-.447-1-1v-44c0-.552.447-1 1-1h44c.553 0 1 .448 1 1v44c0 .553-.447 1-1 1zm-43-2h42v-42h-42z" fill="#e6e9ed"/></svg>