<svg id="Capa_1" enable-background="new 0 0 512 512" height="512" viewBox="0 0 512 512" width="512" xmlns="http://www.w3.org/2000/svg"><g><path d="m452 226c0-24.813-20.187-45-45-45-18.482 0-284.752 0-302 0-24.813 0-45 20.187-45 45v241c0 24.813 20.187 45 45 45h302c24.813 0 45-20.187 45-45 0-25.961 0-198.939 0-241z" fill="#f5f5ff"/><path d="m452 226v241c0 24.81-20.19 45-45 45h-150.99v-331h150.99c24.81 0 45 20.19 45 45z" fill="#ebebff"/><path d="m422 409.095-43.416-43.416 43.416-43.416z" fill="#00bf76"/><path d="m422 226v53.837l-195.95 195.95-89.065-89.066 175.72-175.721h94.295c8.271 0 15 6.729 15 15z" fill="#80f280"/><g fill="#4bd675"><path d="m422 226v53.84l-165.99 165.99v-178.13l56.7-56.7h94.29c8.27 0 15 6.73 15 15z"/><path d="m105 211h165.279l-180.279 180.28v-165.28c0-8.271 6.729-15 15-15z"/><path d="m90 467v-33.294l25.771-25.771 74.066 74.065h-84.837c-8.271 0-15-6.729-15-15z"/></g><path d="m407 482h-144.737l95.108-95.108 64.629 64.629v15.479c0 8.271-6.729 15-15 15z" fill="#00bf76"/><path d="m256.013 0c-101.868 0-161.249 112.906-107.198 196.618l94.532 148.945c5.882 9.267 19.442 9.278 25.329 0l94.582-149.02c53.802-83.447-5.106-196.543-107.245-196.543z" fill="#f23900"/><path d="m363.26 196.54c-4.365 6.877-91.692 144.469-94.58 149.02-2.95 4.64-7.81 6.96-12.67 6.96v-352.52c102.325 0 160.983 113.319 107.25 196.54z" fill="#e20016"/><circle cx="256.013" cy="127.525" fill="#ff9100" r="61"/><path d="m317.01 127.52c0 33.689-27.418 61-61 61v-122c33.64 0 61 27.37 61 61z" fill="#f50"/></g></svg>